# xmcd
#
# Track frame offsets: 
#        150
#        15540
#        39185
#        63812
#        83505
#        100877
#        118165
#        137355
#        158092
#        180345
#        197792
#        214882
#        236185
#        253850
#        276877
#        303295
#        318267
#        333885
#
# Disc length: 4664 seconds
#
# Revision: 2
# Processed by: cddbd v1.5.2PL0 Copyright (c) Steve Scherf et al.
# Submitted via: ExactAudioCopyFreeDBPlugin 1.0
#
DISCID=ea123612
DTITLE=Various Artist - Herzschmerz
DYEAR=1998
DGENRE=Pop
TTITLE0=Simply Red - If You Don't Know Me By Now
TTITLE1=R.E.M. - Everybody Hurts
TTITLE2=Frankie Goes To Hollywood - The Power Of Love
TTITLE3=Richard Marx - Right Here Waiting For You
TTITLE4=Cappuccino - Du Fehlst Mir (Wintersonate)
TTITLE5=Nana - Lonely
TTITLE6=Roxette - It Must Have Been Love
TTITLE7=Mr. Mister - Broken Wings
TTITLE8=Foreigner - I Want To Know What Love Is
TTITLE9=Crowded House - Don´t Dream It´s Over
TTITLE10=Cindy Lauper - True Colours
TTITLE11=Klaus Lage - Stille Wasser
TTITLE12=The Cars - Drive
TTITLE13=Selig - Ohne Dich
TTITLE14=Toto - Out Of Love
TTITLE15=Nilsson - Without You
TTITLE16=Fine Young Cannibals - Funny How Love Is
TTITLE17=Marillion - Kayleigh
EXTD=23.01.2008\nRIP by MINCHI
EXTT0=
EXTT1=
EXTT2=
EXTT3=
EXTT4=
EXTT5=
EXTT6=
EXTT7=
EXTT8=
EXTT9=
EXTT10=
EXTT11=
EXTT12=
EXTT13=
EXTT14=
EXTT15=
EXTT16=
EXTT17=
PLAYORDER=
